<svg width="127" height="191" viewBox="0 0 127 191" fill="none" xmlns="http://www.w3.org/2000/svg">
<g filter="url(#filter0_d)">
<path d="M9.88281 138.426L40.8887 127.439C40.8887 131.508 42.028 135.089 44.3066 138.182C46.5853 141.274 48.8639 143.309 51.1426 144.285L54.5605 145.994V177.732C40.7259 177.732 28.9258 171.71 19.1602 159.666C13.138 152.016 10.0456 144.936 9.88281 138.426ZM11.8359 52.9766C11.8359 35.0729 19.4857 21.6452 34.7852 12.6934C41.7839 8.46159 48.3757 6.26432 54.5605 6.10156V38.3281C50.4915 39.4674 47.4805 42.3971 45.5273 47.1172C44.8763 48.582 44.5508 50.1283 44.5508 51.7559C44.5508 58.429 49.515 64.1257 59.4434 68.8457C61.5592 69.8223 64.9772 71.2871 69.6973 73.2402C77.5098 76.3327 83.0436 78.8555 86.2988 80.8086C99.4824 88.6211 108.271 96.5964 112.666 104.734C115.921 111.082 117.549 118.162 117.549 125.975C117.549 140.786 111.934 153.481 100.703 164.061C91.1003 173.175 80.1953 177.732 67.9883 177.732V145.994C74.3359 145.18 78.8118 141.844 81.416 135.984C82.5553 133.38 83.125 130.532 83.125 127.439C83.125 119.139 76.9401 112.303 64.5703 106.932C62.2917 105.955 58.7109 104.572 53.8281 102.781C48.1315 100.828 44.1439 99.2819 41.8652 98.1426C27.8678 91.4694 18.916 82.8431 15.0098 72.2637C12.8939 66.5671 11.8359 60.138 11.8359 52.9766ZM67.9883 38.3281V6.10156C81.6602 6.10156 93.1348 11.8796 102.412 23.4355C107.783 30.2715 110.55 36.4564 110.713 41.9902L78.9746 52.4883C78.9746 45.6523 75.638 41.0137 68.9648 38.5723C68.3138 38.4095 67.9883 38.3281 67.9883 38.3281Z" fill="url(#paint0_linear)"/>
<path d="M9.88281 138.426L8.21289 133.713L4.79372 134.924L4.88437 138.551L9.88281 138.426ZM40.8887 127.439H45.8887V120.363L39.2187 122.727L40.8887 127.439ZM51.1426 144.285L53.3786 139.813L53.2472 139.747L53.1122 139.689L51.1426 144.285ZM54.5605 145.994H59.5605V142.904L56.7966 141.522L54.5605 145.994ZM54.5605 177.732V182.732H59.5605V177.732H54.5605ZM19.1602 159.666L15.2315 162.759L15.2537 162.787L15.2764 162.815L19.1602 159.666ZM34.7852 12.6934L37.3102 17.0089L37.3414 16.9907L37.3723 16.972L34.7852 12.6934ZM54.5605 6.10156H59.5605V0.968253L54.429 1.10329L54.5605 6.10156ZM54.5605 38.3281L55.9087 43.1429L59.5605 42.1204V38.3281H54.5605ZM45.5273 47.1172L50.0964 49.1479L50.1227 49.0887L50.1474 49.0289L45.5273 47.1172ZM59.4434 68.8457L57.2966 73.3614L57.3222 73.3736L57.3481 73.3855L59.4434 68.8457ZM69.6973 73.2402L67.7855 77.8603L67.8212 77.8751L67.857 77.8893L69.6973 73.2402ZM86.2988 80.8086L83.7263 85.0961L83.7381 85.1031L83.7498 85.1101L86.2988 80.8086ZM112.666 104.734L117.115 102.453L117.091 102.405L117.066 102.359L112.666 104.734ZM100.703 164.061L97.2747 160.421L97.2678 160.428L97.261 160.434L100.703 164.061ZM67.9883 177.732H62.9883V182.732H67.9883V177.732ZM67.9883 145.994L67.3525 141.035L62.9883 141.594V145.994H67.9883ZM81.416 135.984L85.9851 138.015L85.991 138.002L85.9968 137.988L81.416 135.984ZM64.5703 106.932L66.5617 102.345L66.5508 102.341L66.5399 102.336L64.5703 106.932ZM53.8281 102.781L55.5494 98.0869L55.4998 98.0687L55.4497 98.0515L53.8281 102.781ZM41.8652 98.1426L44.1013 93.6704L44.0593 93.6494L44.0169 93.6292L41.8652 98.1426ZM15.0098 72.2637L19.7003 70.5318L19.6969 70.5227L15.0098 72.2637ZM67.9883 38.3281H62.9883V42.232L66.7756 43.1788L67.9883 38.3281ZM67.9883 6.10156V1.10156H62.9883V6.10156H67.9883ZM102.412 23.4355L106.344 20.3464L106.328 20.3258L106.311 20.3054L102.412 23.4355ZM110.713 41.9902L112.283 46.7373L115.82 45.5673L115.711 41.8432L110.713 41.9902ZM78.9746 52.4883H73.9746V59.4086L80.5448 57.2353L78.9746 52.4883ZM68.9648 38.5723L70.6828 33.8767L70.4342 33.7857L70.1775 33.7216L68.9648 38.5723ZM11.5527 143.139L42.5586 132.152L39.2187 122.727L8.21289 133.713L11.5527 143.139ZM35.8887 127.439C35.8887 132.508 37.3307 137.143 40.2814 141.148L48.3319 135.216C46.7252 133.035 45.8887 130.508 45.8887 127.439H35.8887ZM40.2814 141.148C42.8225 144.596 45.7448 147.412 49.173 148.881L53.1122 139.689C51.983 139.206 50.3481 137.952 48.3319 135.216L40.2814 141.148ZM48.9065 148.757L52.3245 150.466L56.7966 141.522L53.3786 139.813L48.9065 148.757ZM49.5605 145.994V177.732H59.5605V145.994H49.5605ZM54.5605 172.732C42.428 172.732 31.99 167.55 23.0439 156.517L15.2764 162.815C25.8616 175.87 39.0238 182.732 54.5605 182.732V172.732ZM23.0888 156.573C17.4199 149.372 15.0066 143.316 14.8813 138.301L4.88437 138.551C5.08451 146.556 8.85614 154.66 15.2315 162.759L23.0888 156.573ZM16.8359 52.9766C16.8359 36.8269 23.5625 25.0528 37.3102 17.0089L32.2601 8.3778C15.4088 18.2376 6.83594 33.319 6.83594 52.9766H16.8359ZM37.3723 16.972C43.8601 13.0491 49.6096 11.2336 54.6921 11.0998L54.429 1.10329C47.1417 1.29506 39.7076 3.87405 32.1981 8.4147L37.3723 16.972ZM49.5605 6.10156V38.3281H59.5605V6.10156H49.5605ZM53.2124 33.5133C47.3523 35.1541 43.311 39.3963 40.9073 45.2054L50.1474 49.0289C51.6499 45.398 53.6308 43.7808 55.9087 43.1429L53.2124 33.5133ZM40.9583 45.0865C40.0187 47.2007 39.5508 49.4397 39.5508 51.7559H49.5508C49.5508 50.8168 49.7339 49.9634 50.0964 49.1479L40.9583 45.0865ZM39.5508 51.7559C39.5508 61.4165 46.8451 68.3926 57.2966 73.3614L61.5902 64.33C52.1848 59.8587 49.5508 55.4415 49.5508 51.7559H39.5508ZM57.3481 73.3855C59.5614 74.4071 63.0585 75.9043 67.7855 77.8603L71.609 68.6202C66.896 66.6699 63.5571 65.2375 61.5387 64.3059L57.3481 73.3855ZM67.857 77.8893C75.6446 80.9719 80.8488 83.3696 83.7263 85.0961L88.8713 76.5211C85.2384 74.3414 79.3749 71.6935 71.5375 68.5912L67.857 77.8893ZM83.7498 85.1101C96.6105 92.7312 104.5 100.135 108.266 107.11L117.066 102.359C112.043 93.058 102.354 84.511 88.8478 76.5071L83.7498 85.1101ZM108.217 107.016C111.077 112.592 112.549 118.879 112.549 125.975H122.549C122.549 117.446 120.766 109.572 117.115 102.453L108.217 107.016ZM112.549 125.975C112.549 139.345 107.549 150.742 97.2747 160.421L104.132 167.7C116.318 156.22 122.549 142.227 122.549 125.975H112.549ZM97.261 160.434C88.5012 168.748 78.8005 172.732 67.9883 172.732V182.732C81.5901 182.732 93.6993 177.602 104.145 167.687L97.261 160.434ZM72.9883 177.732V145.994H62.9883V177.732H72.9883ZM68.6241 150.954C76.7086 149.917 82.6731 145.467 85.9851 138.015L76.847 133.954C74.9506 138.221 71.9633 140.444 67.3525 141.035L68.6241 150.954ZM85.9968 137.988C87.4362 134.699 88.125 131.16 88.125 127.439H78.125C78.125 129.903 77.6745 132.062 76.8352 133.98L85.9968 137.988ZM88.125 127.439C88.125 116.063 79.4968 107.962 66.5617 102.345L62.5789 111.518C74.3834 116.644 78.125 122.215 78.125 127.439H88.125ZM66.5399 102.336C64.1316 101.304 60.446 99.8823 55.5494 98.0869L52.1069 107.476C56.9758 109.261 60.4517 110.606 62.6007 111.527L66.5399 102.336ZM55.4497 98.0515C49.7577 96.1 46.0521 94.6459 44.1013 93.6704L39.6292 102.615C42.2356 103.918 46.5053 105.556 52.2065 107.511L55.4497 98.0515ZM44.0169 93.6292C30.747 87.3029 23.008 79.4903 19.7002 70.5318L10.3193 73.9955C14.824 86.1959 24.9886 95.6359 39.7135 102.656L44.0169 93.6292ZM19.6969 70.5227C17.8212 65.4729 16.8359 59.6475 16.8359 52.9766H6.83594C6.83594 60.6285 7.96653 67.6612 10.3226 74.0046L19.6969 70.5227ZM72.9883 38.3281V6.10156H62.9883V38.3281H72.9883ZM67.9883 11.1016C80.0044 11.1016 90.0936 16.0783 98.5131 26.5657L106.311 20.3054C96.1759 7.68086 83.316 1.10156 67.9883 1.10156V11.1016ZM98.4805 26.5247C103.542 32.9663 105.597 38.1278 105.715 42.1372L115.711 41.8432C115.503 34.785 112.025 27.5767 106.344 20.3464L98.4805 26.5247ZM109.143 37.2432L77.4044 47.7412L80.5448 57.2353L112.283 46.7373L109.143 37.2432ZM83.9746 52.4883C83.9746 48.2333 82.9238 44.289 80.5312 40.9627C78.1495 37.6516 74.7296 35.3572 70.6828 33.8767L67.2469 43.2679C69.8732 44.2287 71.4582 45.4744 72.4131 46.802C73.3571 48.1143 73.9746 49.9073 73.9746 52.4883H83.9746ZM70.1775 33.7216C70.1414 33.7125 70.0929 33.7004 70.0593 33.692C69.8352 33.636 70.1702 33.7197 69.9486 33.6643C69.7588 33.6169 69.93 33.6597 69.7503 33.6147C69.6731 33.5955 69.7371 33.6115 69.6625 33.5928C69.661 33.5924 69.6536 33.5906 69.6521 33.5902C69.6512 33.59 69.6504 33.5898 69.6495 33.5896C69.6487 33.5893 69.6478 33.5891 69.6469 33.5889C69.6461 33.5887 69.6452 33.5885 69.6444 33.5883C69.6435 33.588 69.6426 33.5878 69.6418 33.5876C69.6409 33.5874 69.6401 33.5872 69.6392 33.587C69.6384 33.5868 69.6375 33.5866 69.6367 33.5863C69.6358 33.5861 69.635 33.5859 69.6341 33.5857C69.6333 33.5855 69.6324 33.5853 69.6316 33.5851C69.6308 33.5849 69.6299 33.5847 69.6291 33.5844C69.6282 33.5842 69.6274 33.584 69.6266 33.5838C69.6257 33.5836 69.6249 33.5834 69.624 33.5832C69.6232 33.583 69.6224 33.5828 69.6215 33.5826C69.6152 33.581 69.5881 33.5742 69.5824 33.5728C69.5485 33.5643 69.5413 33.5625 69.5099 33.5547C69.4757 33.5461 69.5102 33.5547 69.4766 33.5463C69.4477 33.5391 69.4893 33.5495 69.4606 33.5423C69.4491 33.5395 69.4564 33.5413 69.4451 33.5384C69.4406 33.5373 69.4194 33.532 69.4155 33.5311C69.407 33.5289 69.3958 33.5261 69.3879 33.5241C69.3325 33.5103 69.3911 33.525 69.3383 33.5117C69.2962 33.5012 69.3359 33.5111 69.2963 33.5013C69.2935 33.5005 69.2804 33.4973 69.2782 33.4967C69.2617 33.4926 69.2778 33.4966 69.262 33.4927C69.2541 33.4907 69.2624 33.4928 69.2546 33.4908C69.2525 33.4903 69.2497 33.4896 69.2477 33.4891C69.2474 33.489 69.2471 33.489 69.2469 33.4889C69.2466 33.4888 69.2463 33.4887 69.246 33.4887C69.2453 33.4885 69.2451 33.4885 69.2444 33.4883C69.2425 33.4878 69.2431 33.4879 69.2413 33.4875C69.2403 33.4873 69.2361 33.4862 69.2353 33.486C69.2169 33.4814 69.232 33.4852 69.2162 33.4812C69.2015 33.4776 69.2236 33.4831 69.2095 33.4796C69.2072 33.479 69.2065 33.4788 69.2048 33.4784C69.2019 33.4777 69.2058 33.4786 69.2031 33.4779C69.2027 33.4779 69.2028 33.4779 69.2024 33.4778C69.2024 33.4778 69.2024 33.4778 69.2023 33.4777C69.2023 33.4777 69.2022 33.4777 69.2022 33.4777C69.2021 33.4777 69.2021 33.4777 69.202 33.4777C69.202 33.4777 69.202 33.4777 69.2019 33.4777C69.2016 33.4776 69.2017 33.4776 69.2015 33.4775C69.2014 33.4775 69.2014 33.4775 69.2013 33.4775C69.2013 33.4775 69.2013 33.4775 69.2013 33.4775C69.2012 33.4775 69.2012 33.4775 69.2012 33.4775C69.201 33.4774 69.2012 33.4775 69.2011 33.4774C69.2011 33.4774 69.201 33.4774 69.201 33.4774C69.201 33.4774 69.201 33.4774 69.201 33.4774C69.201 33.4774 69.201 33.4774 69.201 33.4774C69.201 33.4774 69.201 33.4774 69.201 33.4774C69.201 33.4774 69.201 33.4774 67.9883 38.3281C66.7756 43.1788 66.7756 43.1788 66.7756 43.1788C66.7756 43.1788 66.7756 43.1788 66.7756 43.1788C66.7756 43.1788 66.7756 43.1788 66.7756 43.1788C66.7756 43.1788 66.7757 43.1788 66.7757 43.1789C66.7757 43.1789 66.7758 43.1789 66.7758 43.1789C66.7759 43.1789 66.7763 43.179 66.7766 43.1791C66.7771 43.1792 66.7782 43.1795 66.7794 43.1798C66.7812 43.1802 66.7865 43.1816 66.7909 43.1827C66.8072 43.1867 66.8101 43.1875 66.8366 43.1941C66.8987 43.2096 66.917 43.2142 67.0197 43.2399C67.097 43.2592 67.5122 43.363 67.7522 43.423L70.1775 33.7216Z" fill="url(#paint1_linear)"/>
</g>
<defs>
<filter id="filter0_d" x="0.793701" y="0.968246" width="125.755" height="189.764" filterUnits="userSpaceOnUse" color-interpolation-filters="sRGB">
<feFlood flood-opacity="0" result="BackgroundImageFix"/>
<feColorMatrix in="SourceAlpha" type="matrix" values="0 0 0 0 0 0 0 0 0 0 0 0 0 0 0 0 0 0 127 0"/>
<feOffset dy="4"/>
<feGaussianBlur stdDeviation="2"/>
<feColorMatrix type="matrix" values="0 0 0 0 0 0 0 0 0 0 0 0 0 0 0 0 0 0 0.25 0"/>
<feBlend mode="normal" in2="BackgroundImageFix" result="effect1_dropShadow"/>
<feBlend mode="normal" in="SourceGraphic" in2="effect1_dropShadow" result="shape"/>
</filter>
<linearGradient id="paint0_linear" x1="66.5" y1="-80" x2="66.5" y2="179" gradientUnits="userSpaceOnUse">
<stop stop-color="#EE4540"/>
<stop offset="0.0001" stop-color="white" stop-opacity="0"/>
<stop offset="0.0002" stop-color="#C1F05B" stop-opacity="0.859375"/>
<stop offset="0.541667" stop-color="#F05F5B" stop-opacity="0.859375"/>
</linearGradient>
<linearGradient id="paint1_linear" x1="66.5" y1="-80" x2="66.5" y2="179" gradientUnits="userSpaceOnUse">
<stop stop-color="#C1F05B" stop-opacity="0.859375"/>
<stop offset="1" stop-color="#EE4540"/>
</linearGradient>
</defs>
</svg>
